<svg width="70" height="79" viewBox="0 0 70 79" fill="none" xmlns="http://www.w3.org/2000/svg">
<path d="M2.44766 66.2445C2.72199 65.9781 3.04893 65.7723 3.42849 65.627C3.80805 65.4817 4.21985 65.409 4.66388 65.4089C5.12403 65.4089 5.54587 65.4876 5.92938 65.6451C6.31289 65.8025 6.6702 66.0468 7.0013 66.3777L7.99429 65.4089C7.59892 64.9569 7.1123 64.6137 6.53445 64.3794C5.9566 64.1452 5.30864 64.0281 4.59059 64.0283C3.92849 64.0283 3.3189 64.1353 2.76183 64.3492C2.20476 64.5631 1.71815 64.8659 1.30199 65.2576C0.88737 65.6472 0.559308 66.1196 0.339108 66.6442C0.112935 67.1771 -0.00010131 67.7585 6.81303e-08 68.3882C0.000101446 69.018 0.113137 69.5993 0.339108 70.1321C0.558639 70.6556 0.884447 71.1278 1.29591 71.5188C1.70771 71.9105 2.19011 72.2133 2.74313 72.4271C3.29614 72.6409 3.9037 72.7479 4.5658 72.7481C5.16755 72.7474 5.76573 72.6555 6.33996 72.4756C6.92531 72.2939 7.44006 72.0253 7.88419 71.6697V68.2914H6.39394V70.9247C6.2267 71.0229 6.05021 71.1043 5.86703 71.168C5.47532 71.3012 5.06426 71.3688 4.6505 71.3678C4.19825 71.3678 3.78651 71.2952 3.41526 71.1499C3.05428 71.0113 2.7256 70.8 2.44957 70.5292C2.17354 70.2584 1.95603 69.9338 1.8105 69.5756C1.66097 69.2121 1.58631 68.8165 1.58651 68.3887C1.58651 67.9528 1.66118 67.5531 1.8105 67.1896C1.95494 66.8338 2.17194 66.5119 2.44766 66.2445V66.2445Z" fill="white"/>
<path d="M16.9581 64.1494L14.4531 68.2735L11.9685 64.1494H10.2852L13.6156 69.6602V72.627H15.1899V69.6401L18.5083 64.1494H16.9581Z" fill="white"/>
<path d="M28.957 64.1494L25.6481 69.7672L22.284 64.1494H20.9883V72.627H22.4899V67.0837L25.2753 71.6582H25.9779L28.7644 67.0104L28.7755 72.627H30.2651L30.2529 64.1494H28.957Z" fill="white"/>
<path d="M40.6193 64.1496H39.0449V72.6272H45.0519V71.2951H40.6193V64.1496Z" fill="white"/>
<path d="M49.4474 64.1494H47.873V72.627H49.4474V64.1494Z" fill="white"/>
<path d="M53.3125 72.6272H54.8868V69.3816H58.9803V68.0493H54.8868V65.4697H59.501V64.1496H53.3125V72.6272Z" fill="white"/>
<path d="M64.1759 71.3069V68.9696H68.2694V67.6737H64.1759V65.4695H68.7901V64.1494H62.6016V72.627H68.9598V71.3069H64.1759Z" fill="white"/>
<path d="M24.0091 75.8125L23.2488 78.4945H22.9495L22.2742 76.2076L21.5837 78.4945L21.292 78.4983L20.5469 75.8125H20.8346L21.4485 78.1645L22.1369 75.8125H22.4361L23.1039 78.1645L23.7216 75.8125H24.0091Z" fill="white"/>
<path d="M26.3369 76.0311V77.0324H27.3538V77.2551H26.3369V78.2718H27.4689V78.4944H26.0684V75.8086H27.4689V76.0311H26.3369Z" fill="white"/>
<path d="M29.9174 78.2758H30.8802V78.4945H29.6484V75.8125H29.917L29.9174 78.2758Z" fill="white"/>
<path d="M33.1826 78.2758H34.1458V78.4945H32.9141V75.8125H33.1826V78.2758Z" fill="white"/>
<path d="M38.198 78.4945H37.9294L36.4443 76.2384V78.4945H36.1758V75.8125H36.4443L37.9294 78.0648V75.8125H38.198V78.4945Z" fill="white"/>
<path d="M40.7275 76.0311V77.0324H41.7444V77.2551H40.7275V78.2718H41.8595V78.4944H40.459V75.8086H41.8595V76.0311H40.7275Z" fill="white"/>
<path d="M44.3866 78.4299C44.2597 78.3745 44.1503 78.2857 44.0701 78.1729C43.994 78.0647 43.9513 77.9366 43.9473 77.8044H44.2312C44.2439 77.9349 44.3015 78.0494 44.4039 78.1479C44.5063 78.2465 44.6559 78.2957 44.8528 78.2956C45.0344 78.2956 45.1783 78.2489 45.2845 78.1555C45.3358 78.1119 45.3766 78.0574 45.4041 77.996C45.4317 77.9346 45.4451 77.8679 45.4436 77.8006C45.4436 77.6854 45.4142 77.5927 45.3554 77.5225C45.297 77.4524 45.2218 77.3982 45.1367 77.3651C45.0187 77.3207 44.8984 77.2829 44.7762 77.2519C44.631 77.2149 44.4887 77.1674 44.3504 77.1099C44.2438 77.0627 44.1512 76.9886 44.0817 76.895C44.0075 76.7978 43.9704 76.666 43.9705 76.4997C43.9685 76.3683 44.0059 76.2393 44.0779 76.1294C44.153 76.0177 44.2581 75.9292 44.381 75.8742C44.5114 75.8134 44.6611 75.7827 44.83 75.7822C45.0781 75.7822 45.2782 75.8431 45.4304 75.9647C45.5037 76.0212 45.5648 76.092 45.6099 76.1728C45.6551 76.2536 45.6835 76.3427 45.6933 76.4347H45.4016C45.3837 76.3247 45.3236 76.2269 45.2213 76.1413C45.119 76.0556 44.9809 76.0128 44.8069 76.0128C44.6457 76.0128 44.5114 76.0556 44.4041 76.1413C44.2967 76.2269 44.243 76.344 44.2429 76.4924C44.2429 76.6049 44.2723 76.6957 44.3311 76.7647C44.3907 76.8344 44.4664 76.8885 44.5517 76.9221C44.669 76.9673 44.7888 77.0058 44.9105 77.0372C45.0543 77.0754 45.1954 77.1235 45.3326 77.1811C45.4404 77.2288 45.5342 77.3034 45.6049 77.3978C45.6792 77.4951 45.7163 77.6256 45.7163 77.7892C45.7161 77.915 45.6816 78.0384 45.6165 78.1461C45.5501 78.2586 45.4516 78.3494 45.321 78.4185C45.1905 78.4875 45.0344 78.5221 44.853 78.5222C44.6763 78.5221 44.5208 78.4913 44.3866 78.4299Z" fill="white"/>
<path d="M48.2323 78.4299C48.1054 78.3745 47.996 78.2857 47.9158 78.1729C47.8397 78.0647 47.797 77.9366 47.793 77.8044H48.0769C48.0896 77.9349 48.1472 78.0494 48.2496 78.1479C48.352 78.2465 48.5017 78.2957 48.6985 78.2956C48.8801 78.2956 49.024 78.2489 49.1302 78.1555C49.1815 78.1119 49.2223 78.0574 49.2498 77.996C49.2774 77.9346 49.2908 77.8679 49.2893 77.8006C49.2893 77.6854 49.2599 77.5927 49.2011 77.5225C49.1427 77.4524 49.0675 77.3982 48.9824 77.3651C48.8644 77.3207 48.744 77.2829 48.6217 77.2519C48.4766 77.2148 48.3343 77.1674 48.1959 77.1099C48.0894 77.0627 47.9969 76.9886 47.9274 76.895C47.8532 76.7978 47.8161 76.666 47.8161 76.4997C47.8142 76.3683 47.8516 76.2393 47.9236 76.1294C47.9987 76.0176 48.1037 75.9292 48.2267 75.8742C48.3571 75.8134 48.5068 75.7827 48.6757 75.7822C48.9238 75.7822 49.1239 75.8431 49.2761 75.9647C49.3494 76.0212 49.4105 76.092 49.4556 76.1728C49.5008 76.2536 49.5292 76.3427 49.539 76.4347H49.2473C49.2294 76.3247 49.1693 76.2269 49.067 76.1413C48.9647 76.0556 48.8266 76.0128 48.6526 76.0128C48.4914 76.0128 48.3571 76.0556 48.2498 76.1413C48.1424 76.2269 48.0887 76.344 48.0886 76.4924C48.0886 76.6049 48.118 76.6957 48.1768 76.7647C48.2364 76.8344 48.3121 76.8885 48.3974 76.9221C48.5147 76.9673 48.6345 77.0058 48.7562 77.0372C48.9 77.0754 49.041 77.1235 49.1781 77.1811C49.286 77.2288 49.3799 77.3034 49.4506 77.3978C49.5249 77.4951 49.562 77.6256 49.562 77.7892C49.5618 77.915 49.5273 78.0384 49.4622 78.1461C49.3956 78.2586 49.2971 78.3494 49.1667 78.4185C49.0364 78.4875 48.8803 78.5221 48.6987 78.5222C48.522 78.5221 48.3665 78.4913 48.2323 78.4299Z" fill="white"/>
<path d="M19.6077 77.0537H0.0390625V77.2487H19.6077V77.0537Z" fill="white"/>
<path d="M68.9867 77.0538H50.502V77.2488H68.9867V77.0538Z" fill="white"/>
<path d="M46.4863 38.6236C46.4863 38.6236 49.4293 28.0615 57.9599 28.735C61.276 28.7046 63.8485 31.1118 68.2902 30.9909C68.2902 30.9909 65.5324 37.3561 60.1539 38.1043C54.7755 38.8524 50.3569 36.5051 50.3569 36.5051C50.3569 36.5051 52.8042 32.6297 57.9965 32.6274C57.9965 32.6279 50.2389 31.2553 46.4863 38.6236Z" fill="#8CC542"/>
<path d="M0.00195312 47.8761L8.91609 41.9658C13.819 38.7155 21.8418 38.7155 26.7451 41.9658C35.9251 48.0519 17.9782 51.7917 7.65227 48.2134C17.7703 53.8224 24.9503 52.9165 35.0008 45.6362C49.4046 35.1986 57.7681 39.5535 70.0003 47.6632L61.0854 53.5736C56.1826 56.8239 48.1598 56.8239 43.2571 53.5736C34.077 47.4874 52.0241 43.7477 62.35 47.3252C52.2312 41.717 45.0518 42.6224 35.0016 49.9033C20.5969 60.3415 12.2334 55.9858 0.00195312 47.8761Z" fill="#8CC542"/>
<path d="M22.96 38.6236C22.96 38.6236 20.0171 28.0615 11.4864 28.735C8.17032 28.7046 5.59781 31.1118 1.15625 30.9909C1.15625 30.9909 3.91398 37.3561 9.29181 38.1043C14.6696 38.8524 19.089 36.5051 19.089 36.5051C19.089 36.5051 16.6416 32.6297 11.4493 32.6274C11.4499 32.6279 19.2076 31.2553 22.96 38.6236Z" fill="#8CC542"/>
<path d="M18.9924 29.2821C18.9924 29.2821 19.0836 24.1943 15.2001 23.3631C13.7294 22.9098 12.2662 23.6397 10.3066 22.9971C10.3066 22.9971 10.6894 26.1938 12.983 27.2397C15.2766 28.2856 17.5525 27.827 17.5525 27.827C17.5525 27.827 16.9776 25.779 14.6685 25.0898C14.6684 25.0897 18.3002 25.5075 18.9924 29.2821Z" fill="#8CC542"/>
<path d="M18.9396 23.8195C18.9396 23.8195 19.4262 21.1848 17.4819 20.4171C16.7572 20.0545 15.934 20.307 14.9719 19.8038C14.9719 19.8038 14.8942 21.4973 15.9947 22.2386C17.0952 22.9799 18.3172 22.939 18.3172 22.939C18.3172 22.939 18.1956 21.8254 17.0561 21.2678C17.0561 21.2678 18.9065 21.7991 18.9396 23.8195Z" fill="#8CC542"/>
<path d="M50.4533 29.2821C50.4533 29.2821 50.3621 24.1943 54.2455 23.3631C55.7163 22.9098 57.1797 23.6397 59.139 22.9971C59.139 22.9971 58.7563 26.1938 56.4627 27.2397C54.1691 28.2856 51.8946 27.8267 51.8946 27.8267C51.8946 27.8267 52.4694 25.7787 54.7784 25.0895C54.7778 25.0897 51.1455 25.5075 50.4533 29.2821Z" fill="#8CC542"/>
<path d="M50.5074 23.8193C50.5074 23.8193 50.0201 21.1846 51.9651 20.417C52.6899 20.0543 53.513 20.3069 54.4753 19.8037C54.4753 19.8037 54.5529 21.4971 53.4524 22.2384C52.3519 22.9798 51.1298 22.9389 51.1298 22.9389C51.1298 22.9389 51.2515 21.8253 52.3909 21.2677C52.3909 21.2677 50.5412 21.799 50.5074 23.8193Z" fill="#8CC542"/>
<path d="M35.0411 0C35.0267 2.24298 20.534 13.0199 20.4287 23.0381C20.3384 31.5946 26.3241 36.0446 31.194 40.5892C31.4416 40.76 31.7316 40.859 32.0319 40.8751C32.3323 40.8913 32.6313 40.824 32.8958 40.6808C33.1602 40.5375 33.3799 40.3238 33.5305 40.0634C33.681 39.803 33.7565 39.506 33.7487 39.2053C33.1032 36.2994 32.3497 33.3421 31.4781 31.2918C30.0316 27.8899 28.3102 24.6412 25.6854 21.9832C24.6872 20.9726 23.5155 20.1335 22.3633 19.166C23.028 19.2411 23.7201 19.2604 24.3851 19.4049C26.7168 19.9117 28.736 21.1093 30.6754 22.4277C32.1452 23.4268 33.539 24.5378 35.0537 25.6638C35.2793 25.4167 35.5379 25.1097 35.8209 24.8274C37.8912 22.7604 40.1417 20.9421 42.897 19.8561C44.4238 19.2542 45.9977 18.9177 47.7203 19.2428C46.965 19.7775 46.242 20.2504 45.5609 20.7787C42.4154 23.2168 40.1728 26.3693 38.4804 29.925C37.5376 31.9054 36.6684 35.8909 36.0402 39.3183C36.0333 39.3745 36.0297 39.431 36.0292 39.4876C36.0289 39.8032 36.12 40.1122 36.2917 40.377C36.4634 40.6419 36.7082 40.8513 36.9964 40.9799C37.2847 41.1084 37.604 41.1506 37.9158 41.1014C38.2276 41.0521 38.5183 40.9135 38.7529 40.7023C38.755 40.7056 38.7569 40.709 38.7588 40.7123C43.6516 36.1252 49.7449 31.6724 49.6538 23.0401C49.5477 13.0199 35.0556 2.24298 35.0411 0ZM35.0042 22.3291C33.267 22.3552 31.7822 20.8932 31.7542 19.1289C31.7265 17.3915 33.1873 15.9062 34.9514 15.878C36.6869 15.8504 38.1737 17.3134 38.2012 19.0761C38.2284 20.8149 36.7663 22.3025 35.0042 22.3291V22.3291Z" fill="#8CC542"/>
</svg>
